<svg id="Layer_1" data-name="Layer 1" xmlns="http://www.w3.org/2000/svg" xmlns:xlink="http://www.w3.org/1999/xlink" viewBox="0 0 541.98 105.7"><defs><style>.cls-1,.cls-10,.cls-13{fill:none;}.cls-2,.cls-7{font-size:22px;}.cls-2{fill:#595a5b;}.cls-11,.cls-12,.cls-2,.cls-7{font-family:Limerick-Serial-Bold, Limerick-Serial;font-weight:700;}.cls-3{letter-spacing:0em;}.cls-4{letter-spacing:0em;}.cls-5{letter-spacing:-0.01em;}.cls-6{letter-spacing:-0.01em;}.cls-12,.cls-7{fill:#1288c9;}.cls-11,.cls-12,.cls-8{font-size:60px;}.cls-11,.cls-8{fill:#58595b;}.cls-8{font-family:InkFree, Ink Free;}.cls-9{clip-path:url(#clip-path);}.cls-10{stroke:#595a5b;stroke-width:2px;}.cls-10,.cls-13{stroke-miterlimit:10;}.cls-13{stroke:#1288ca;stroke-width:3.5px;}</style><clipPath id="clip-path"><rect class="cls-1" width="541.98" height="105.7"/></clipPath></defs><title>My campus Health V3-01</title><text class="cls-2" transform="translate(244.09 97.24)">S<tspan class="cls-3" x="10.93" y="0">o</tspan><tspan class="cls-4" x="23.61" y="0">ft</tspan><tspan class="cls-5" x="36.03" y="0">w</tspan><tspan x="53.85" y="0">a</tspan><tspan class="cls-6" x="67.12" y="0">r</tspan><tspan x="74.12" y="0">e Solutions </tspan><tspan class="cls-6" x="185.65" y="0">b</tspan><tspan x="198.79" y="0">y </tspan></text><text class="cls-7" transform="translate(459.58 97.24)">2C</text><text class="cls-2" transform="translate(486.31 97.24)">Risk</text><text class="cls-8" transform="translate(5.28 68.42)">My</text><g class="cls-9"><path class="cls-10" d="M51.84,65.24a2.23,2.23,0,0,0-.9-1.68Q49.62,62.42,48,49.7q-.6-9-1.5-15.84T44.82,27a2.81,2.81,0,0,0-2,.57,6.73,6.73,0,0,0-1.17,1.83A174.86,174.86,0,0,0,35.4,47.36q-1,3.12-2.07,6.6t-1.47,4.5a33.57,33.57,0,0,1-1.2-5.1q-.66-3.66-1.08-7.5a72.83,72.83,0,0,0-1.5-9.45q-1-4-1.74-4-2.46,0-4,3.27a44.5,44.5,0,0,0-2.88,9.63L18.9,47.9q-1.5,7-2.7,14-.12-2.34-1.26-11.52-.3-2.16-.54-4.14l-.18-2q-.6-5.64-1.14-9.36t-1-3.72a3.38,3.38,0,0,0-1.89.57A1.7,1.7,0,0,0,9.3,33.2a19.07,19.07,0,0,0,.42,2A103.34,103.34,0,0,1,12,47.6q.6,4.68,1.35,10.86t.81,8q.12,1.86,1.08,1.86a2.86,2.86,0,0,0,1.5-.54,1.68,1.68,0,0,0,.9-1.2q1.8-11.22,3.06-16.2Q22,44,23,40.49T25.2,36a76.54,76.54,0,0,1,1.38,8.7l.36,2.52q.48,3.78,1.38,8.49t1.14,5.61a2.36,2.36,0,0,0,.42.93,1.34,1.34,0,0,0,.78.15A2.5,2.5,0,0,0,31.83,62,7,7,0,0,0,33,61.16,8.3,8.3,0,0,0,34.8,58q1-2.61,3-9.51Q39.6,42,41,38t2-5.43q.78.36,2.22,17.94.66,5.76,1.38,10.2a21.32,21.32,0,0,0,1.26,5.34.81.81,0,0,0,.6.51,5.69,5.69,0,0,0,1.14.09,2.51,2.51,0,0,0,1.53-.51Q51.84,65.66,51.84,65.24Z"/><path class="cls-10" d="M76.68,41.9a2.09,2.09,0,0,0-.6-1.35,1.65,1.65,0,0,0-1.2-.69.94.94,0,0,0-1,.57,7.17,7.17,0,0,0-.36,2l-.42,6.06q-.48,1.38-1.38,3.48a26,26,0,0,1-1.68,3.36,25.63,25.63,0,0,1-2.91,4,3.83,3.83,0,0,1-2.85,1.29q-4.08,0-6.36-16.68-.36-2.46-1.68-2.46-.9,0-.9,1.5a42.63,42.63,0,0,0,1,7.56,42.84,42.84,0,0,0,2.91,9.24q1.86,4.08,4.2,4.08,2.52,0,4.89-2.85a33.42,33.42,0,0,0,4-6l-.9,8.28a83.12,83.12,0,0,0-.66,9.06,34.24,34.24,0,0,0,.45,6.54q.45,2.1,1.23,2.1a4.89,4.89,0,0,0,2-.42q1-.42,1-1a4,4,0,0,0-.45-1,11.72,11.72,0,0,1-.84-2.37,16.9,16.9,0,0,1-.39-4.08q0-3.12.33-7t1.11-11.25q.06-.66.78-5.94A55.92,55.92,0,0,0,76.68,41.9Z"/></g><text class="cls-11" transform="translate(79.26 68.42)"><tspan xml:space="preserve"> Campus </tspan></text><text class="cls-12" transform="translate(352.66 68.42)">Health</text><polyline class="cls-13" points="316.08 49.85 322.24 49.85 327.9 41.22 327.9 72.72 339.21 27.31 339.21 59.72 344.51 51.38 348.92 50.02"/></svg>